<svg width="99" height="94" viewBox="0 0 99 94" fill="none" xmlns="http://www.w3.org/2000/svg">
<g clip-path="url(#clip0_358_1690)">
<path d="M47.9652 5.71632L78.7772 23.4495L58.7766 34.9595C57.3065 35.8048 56.8042 37.6782 57.6521 39.1449C58.219 40.1273 59.2559 40.6756 60.3158 40.6756C60.8366 40.6756 61.3665 40.5431 61.8504 40.2644L86.4594 26.1043C87.4088 25.556 87.994 24.5462 87.994 23.4495C87.994 22.3529 87.4088 21.3431 86.4594 20.7994L51.0344 0.411428C49.5643 -0.433882 47.6841 0.068735 46.8361 1.53089C45.9882 2.99762 46.4905 4.87101 47.9606 5.71632" fill="#0C51FF"/>
<path d="M97.4606 67.8998L87.9947 62.4532L87.9947 36.0517C87.9947 34.361 86.6168 32.9902 84.9208 32.9902C83.2249 32.9902 81.847 34.361 81.847 36.0517L81.847 62.4532L58.9565 75.6265C57.4864 76.4719 56.9841 78.3453 57.832 79.812C58.3989 80.7944 59.4358 81.3428 60.4957 81.3428C61.0165 81.3428 61.5465 81.2103 62.0304 80.9315L84.9208 67.7582L94.3821 73.2048C94.866 73.4835 95.396 73.6161 95.9167 73.6161C96.9767 73.6161 98.0136 73.0677 98.5805 72.0853C99.4284 70.6186 98.9261 68.7452 97.456 67.8998" fill="#0C51FF"/>
<path d="M83.3868 74.1735L60.5009 87.4016L52.5789 82.8414L52.5789 43.8378C52.5789 42.7457 51.9936 41.7313 51.0443 41.1875L15.6186 20.8038C14.6693 20.2555 13.4941 20.2555 12.5448 20.8038C11.5954 21.3521 11.0101 22.362 11.0101 23.4586L11.0101 62.4623L1.54425 67.9089C0.5949 68.4572 0.00961852 69.467 0.00961847 70.5637C0.00961843 71.6603 0.5949 72.6701 1.54425 73.2139L36.9699 93.5976C37.9192 94.1459 39.0944 94.1459 40.0437 93.5976L49.505 88.151L58.9709 93.5976C59.4456 93.8718 59.9755 94.0089 60.5055 94.0089C61.0355 94.0089 61.5701 93.8718 62.0494 93.5976L86.4745 79.483C87.94 78.6331 88.4423 76.7597 87.5897 75.2975C86.7372 73.8353 84.8569 73.3327 83.3914 74.1826M38.4999 87.4016L9.22203 70.55L14.0748 67.7581L43.3527 84.6052L38.4999 87.3971L38.4999 87.4016Z" fill="#0C51FF"/>
</g>
<defs>
<clipPath id="clip0_358_1690">
<rect width="94" height="99" fill="white" transform="translate(99 4.32743e-06) rotate(90)"/>
</clipPath>
</defs>
</svg>
