<svg width="386" height="94" viewBox="0 0 386 94" fill="none" xmlns="http://www.w3.org/2000/svg">
<g clip-path="url(#clip0_358_1684)">
<path d="M117.999 44.552C117.999 42.1316 119.962 40.1059 122.385 39.979C135.47 39.1941 141.814 35.077 141.814 26.9791L123.037 26.9791C120.488 26.9791 118.392 24.8877 118.392 22.3403C118.392 19.793 120.483 17.7673 123.037 17.7673L148.683 17.7673C151.758 17.7673 153.395 19.3982 153.395 22.4719L153.395 24.0417C153.395 42.86 139.591 48.2837 122.91 49.1955C120.36 49.3271 118.004 47.2356 118.004 44.5567M171.448 51.8039C174.589 51.8039 176.288 53.5053 176.288 56.6401L176.288 73.1038C176.288 76.5019 173.473 77.8084 170.072 77.8084C167.455 77.8084 165.293 77.0893 164.314 75.3222L126.761 76.9577C123.686 77.0893 121.855 75.3222 121.855 72.1874L121.855 56.6401C121.855 53.5053 123.558 51.8039 126.633 51.8039L171.448 51.8039ZM134.42 60.494L134.42 67.8118L163.794 66.7026L163.794 60.494L134.42 60.494ZM176.288 21.687L176.288 44.3593C176.288 47.7573 173.473 49.9757 170.072 49.9757C166.67 49.9757 163.789 47.7526 163.789 44.3593L155.94 44.3593C153.651 44.3593 151.687 42.3995 151.687 40.1106C151.687 37.8218 153.651 35.8008 155.94 35.8008L163.789 35.8008L163.789 30.5745L158.557 30.5745C156.201 30.5745 154.304 28.6147 154.304 26.2647C154.304 23.9148 156.201 22.016 158.557 22.016L163.789 22.016L163.789 21.6917C163.789 18.2937 166.538 16.0049 170.072 16.0049C173.605 16.0049 176.288 18.2937 176.288 21.6917" fill="#0C51FF"/>
<path d="M183.554 68.2675C183.554 66.3734 184.472 64.672 185.91 63.5629C192.647 58.7267 197.752 51.2774 197.752 35.011L197.752 22.9934C197.752 19.5954 200.5 17.4382 203.902 17.4382C207.303 17.4382 210.052 19.5954 210.052 22.9934L210.052 35.0157C210.052 51.2821 215.156 58.7314 221.827 63.5676C223.265 64.6767 224.311 66.3781 224.311 68.2722C224.311 71.5386 221.628 74.2175 218.359 74.2175C216.921 74.2175 215.611 73.6958 214.631 72.8452C210.118 69.3155 206.258 64.4841 203.902 58.9946C201.546 64.4183 197.624 69.2497 193.172 72.7794C192.193 73.63 190.816 74.0859 189.378 74.0859C186.171 74.0859 183.554 71.5386 183.554 68.2722M227.911 72.1214L227.911 21.6211C227.911 18.2888 230.726 16 234.127 16C237.529 16 240.343 18.2888 240.343 21.6211L240.343 39.3255L243.418 39.3255C246.361 39.3256 247.865 41.7413 247.865 44.6176C247.865 47.494 246.361 50.0413 243.418 50.0413L240.343 50.0413L240.343 72.1261C240.343 75.5241 237.595 77.8082 234.127 77.8082C230.659 77.8082 227.911 75.5194 227.911 72.1261" fill="#0C51FF"/>
<path d="M255.573 44.552C255.573 42.1316 257.536 40.1059 259.959 39.979C273.044 39.1941 279.388 35.077 279.388 26.9791L260.611 26.9791C258.061 26.9791 255.966 24.8877 255.966 22.3403C255.966 19.793 258.057 17.7673 260.611 17.7673L286.257 17.7673C289.332 17.7673 290.969 19.3982 290.969 22.4719L290.969 24.0417C290.969 42.86 277.165 48.2837 260.484 49.1955C257.934 49.3271 255.578 47.2356 255.578 44.5567M309.022 51.8039C312.163 51.8039 313.862 53.5053 313.862 56.6401L313.862 73.1038C313.862 76.5019 311.047 77.8084 307.645 77.8084C305.029 77.8084 302.872 77.0893 301.888 75.3222L264.335 76.9577C261.259 77.0893 259.429 75.3222 259.429 72.1874L259.429 56.6401C259.429 53.5053 261.132 51.8039 264.202 51.8039L309.017 51.8039L309.022 51.8039ZM271.994 60.494L271.994 67.8118L301.368 66.7026L301.368 60.494L271.994 60.494ZM313.862 21.687L313.862 44.3593C313.862 47.7573 311.047 49.9757 307.645 49.9757C304.244 49.9757 301.363 47.7526 301.363 44.3593L293.51 44.3593C291.22 44.3593 289.257 42.3995 289.257 40.1106C289.257 37.8218 291.22 35.8008 293.51 35.8008L301.363 35.8008L301.363 30.5745L296.131 30.5745C293.775 30.5745 291.878 28.6147 291.878 26.2647C291.878 23.9148 293.775 22.016 296.131 22.016L301.363 22.016L301.363 21.6917C301.363 18.2937 304.111 16.0049 307.645 16.0049C311.179 16.0049 313.862 18.2937 313.862 21.6917" fill="#0C51FF"/>
<path d="M321.128 68.2675C321.128 66.3734 322.046 64.672 323.484 63.5629C330.221 58.7267 335.325 51.2774 335.325 35.011L335.325 22.9934C335.325 19.5954 338.074 17.4382 341.475 17.4382C344.877 17.4382 347.625 19.5954 347.625 22.9934L347.625 35.0157C347.625 51.2821 352.73 58.7314 359.4 63.5676C360.839 64.6767 361.884 66.3781 361.884 68.2722C361.884 71.5386 359.202 74.2175 355.933 74.2175C354.494 74.2175 353.184 73.6958 352.205 72.8452C347.692 69.3155 343.831 64.4841 341.475 58.9946C339.119 64.4183 335.193 69.2497 330.746 72.7794C329.766 73.63 328.39 74.0859 326.952 74.0859C323.744 74.0859 321.128 71.5386 321.128 68.2722M365.484 72.1214L365.484 21.6211C365.484 18.2888 368.299 16 371.701 16C375.102 16 377.917 18.2888 377.917 21.6211L377.917 39.3255L380.992 39.3255C383.935 39.3256 385.439 41.7413 385.439 44.6176C385.439 47.494 383.935 50.0413 380.992 50.0413L377.917 50.0413L377.917 72.1261C377.917 75.5241 375.168 77.8082 371.701 77.8082C368.233 77.8082 365.484 75.5194 365.484 72.1261" fill="#0C51FF"/>
</g>
<g clip-path="url(#clip1_358_1684)">
<path d="M47.9652 5.71631L78.7772 23.4495L58.7766 34.9595C57.3065 35.8048 56.8042 37.6782 57.6521 39.1449C58.219 40.1273 59.2559 40.6756 60.3158 40.6756C60.8366 40.6756 61.3665 40.5431 61.8504 40.2644L86.4594 26.1043C87.4088 25.556 87.994 24.5462 87.994 23.4495C87.994 22.3529 87.4088 21.3431 86.4594 20.7994L51.0344 0.411424C49.5643 -0.433886 47.6841 0.0687306 46.8361 1.53089C45.9882 2.99761 46.4905 4.871 47.9606 5.71631" fill="#0C51FF"/>
<path d="M97.4606 67.8998L87.9947 62.4532L87.9947 36.0517C87.9947 34.361 86.6168 32.9902 84.9208 32.9902C83.2249 32.9902 81.847 34.361 81.847 36.0517L81.847 62.4532L58.9565 75.6265C57.4864 76.4719 56.9841 78.3453 57.832 79.812C58.3989 80.7944 59.4358 81.3428 60.4957 81.3428C61.0165 81.3428 61.5465 81.2102 62.0304 80.9315L84.9208 67.7582L94.3821 73.2048C94.866 73.4835 95.396 73.616 95.9167 73.616C96.9767 73.616 98.0136 73.0677 98.5805 72.0853C99.4284 70.6186 98.9261 68.7452 97.456 67.8998" fill="#0C51FF"/>
<path d="M83.3868 74.1735L60.5009 87.4016L52.5789 82.8414L52.5789 43.8377C52.5789 42.7457 51.9936 41.7313 51.0443 41.1875L15.6186 20.8038C14.6693 20.2555 13.4941 20.2555 12.5448 20.8038C11.5954 21.3521 11.0101 22.362 11.0101 23.4586L11.0101 62.4623L1.54425 67.9089C0.5949 68.4572 0.00961852 69.467 0.00961847 70.5637C0.00961843 71.6603 0.5949 72.6701 1.54425 73.2139L36.9699 93.5976C37.9192 94.1459 39.0944 94.1459 40.0437 93.5976L49.505 88.151L58.9709 93.5976C59.4456 93.8718 59.9755 94.0089 60.5055 94.0089C61.0355 94.0089 61.5701 93.8718 62.0494 93.5976L86.4745 79.483C87.94 78.6331 88.4423 76.7597 87.5897 75.2975C86.7372 73.8353 84.8569 73.3327 83.3914 74.1826M38.4999 87.4016L9.22203 70.55L14.0748 67.7581L43.3527 84.6052L38.4999 87.397L38.4999 87.4016Z" fill="#0C51FF"/>
</g>
<defs>
<clipPath id="clip0_358_1684">
<rect width="61.8082" height="267.439" fill="white" transform="translate(385.439 16) rotate(90)"/>
</clipPath>
<clipPath id="clip1_358_1684">
<rect width="94" height="99" fill="white" transform="translate(99) rotate(90)"/>
</clipPath>
</defs>
</svg>
