<svg width="156" height="156" viewBox="0 0 156 156" fill="none" xmlns="http://www.w3.org/2000/svg">
<path d="M19.3815 12.9219V51.6862H58.1459" stroke="#0C51FF" stroke-width="16.2875" stroke-linecap="round" stroke-linejoin="round"/>
<path d="M135.675 77.5272C135.664 66.3069 132.408 55.3293 126.298 45.9183C120.189 36.5073 111.487 29.065 101.242 24.4891C90.9974 19.9131 79.6475 18.3989 68.5615 20.1291C57.4754 21.8594 47.1268 26.7601 38.7637 34.2403L19.3815 51.6843" stroke="#0C51FF" stroke-width="16.2875" stroke-linecap="round" stroke-linejoin="round"/>
<path d="M135.675 142.135V103.371H96.9105" stroke="#0C51FF" stroke-width="16.2875" stroke-linecap="round" stroke-linejoin="round"/>
<path d="M19.3815 77.5293C19.3918 88.7495 22.6481 99.7272 28.7577 109.138C34.8673 118.549 43.5693 125.991 53.814 130.567C64.0587 135.143 75.4086 136.658 86.4946 134.927C97.5807 133.197 107.929 128.296 116.292 120.816L135.675 103.372" stroke="#0C51FF" stroke-width="16.2875" stroke-linecap="round" stroke-linejoin="round"/>
</svg>
